<mxfile host="app.diagrams.net" modified="2023-06-24T10:24:11.657Z" agent="Mozilla/5.0 (Windows NT 10.0; Win64; x64) AppleWebKit/537.36 (KHTML, like Gecko) Chrome/114.0.0.0 Safari/537.36" etag="GdIqINtHdENTflgV8wLN" version="21.5.0" type="device">
  <diagram id="C5RBs43oDa-KdzZeNtuy" name="Page-1">
    <mxGraphModel dx="4223" dy="979" grid="1" gridSize="10" guides="1" tooltips="1" connect="1" arrows="1" fold="1" page="1" pageScale="1" pageWidth="1200" pageHeight="1920" math="0" shadow="0">
      <root>
        <mxCell id="WIyWlLk6GJQsqaUBKTNV-0" />
        <mxCell id="WIyWlLk6GJQsqaUBKTNV-1" parent="WIyWlLk6GJQsqaUBKTNV-0" />
        <mxCell id="8c5ajKfIK-UFhFimAFkt-215" value="" style="rounded=0;whiteSpace=wrap;html=1;fillColor=#ffcd28;gradientColor=#ffa500;strokeColor=#d79b00;" parent="WIyWlLk6GJQsqaUBKTNV-1" vertex="1">
          <mxGeometry x="-1760" y="990" width="550" height="300" as="geometry" />
        </mxCell>
        <mxCell id="8c5ajKfIK-UFhFimAFkt-214" value="" style="rounded=0;whiteSpace=wrap;html=1;fillColor=#e6d0de;gradientColor=#d5739d;strokeColor=#996185;" parent="WIyWlLk6GJQsqaUBKTNV-1" vertex="1">
          <mxGeometry x="-2390" y="866" width="610" height="420" as="geometry" />
        </mxCell>
        <mxCell id="8c5ajKfIK-UFhFimAFkt-213" value="" style="rounded=0;whiteSpace=wrap;html=1;fillColor=#f8cecc;gradientColor=#ea6b66;strokeColor=#b85450;" parent="WIyWlLk6GJQsqaUBKTNV-1" vertex="1">
          <mxGeometry x="-1760" y="580" width="550" height="392" as="geometry" />
        </mxCell>
        <mxCell id="8c5ajKfIK-UFhFimAFkt-212" value="" style="rounded=0;whiteSpace=wrap;html=1;fillColor=#f5f5f5;gradientColor=#b3b3b3;strokeColor=#666666;" parent="WIyWlLk6GJQsqaUBKTNV-1" vertex="1">
          <mxGeometry x="-2390" y="580" width="610" height="272" as="geometry" />
        </mxCell>
        <mxCell id="8c5ajKfIK-UFhFimAFkt-211" value="" style="rounded=0;whiteSpace=wrap;html=1;fillColor=#d5e8d4;gradientColor=#97d077;strokeColor=#82b366;" parent="WIyWlLk6GJQsqaUBKTNV-1" vertex="1">
          <mxGeometry x="-1740" y="22" width="530" height="540" as="geometry" />
        </mxCell>
        <mxCell id="8c5ajKfIK-UFhFimAFkt-210" value="" style="rounded=0;whiteSpace=wrap;html=1;fillColor=#fff2cc;strokeColor=#d6b656;gradientColor=#ffd966;" parent="WIyWlLk6GJQsqaUBKTNV-1" vertex="1">
          <mxGeometry x="-2390" y="22" width="630" height="538" as="geometry" />
        </mxCell>
        <mxCell id="8c5ajKfIK-UFhFimAFkt-1" value="Bookshelf" style="swimlane;fontStyle=1;align=center;verticalAlign=top;childLayout=stackLayout;horizontal=1;startSize=26;horizontalStack=0;resizeParent=1;resizeParentMax=0;resizeLast=0;collapsible=1;marginBottom=0;whiteSpace=wrap;html=1;" parent="WIyWlLk6GJQsqaUBKTNV-1" vertex="1">
          <mxGeometry x="-2345" y="42" width="130" height="34" as="geometry" />
        </mxCell>
        <mxCell id="8c5ajKfIK-UFhFimAFkt-3" value="" style="line;strokeWidth=1;fillColor=none;align=left;verticalAlign=middle;spacingTop=-1;spacingLeft=3;spacingRight=3;rotatable=0;labelPosition=right;points=[];portConstraint=eastwest;strokeColor=inherit;" parent="8c5ajKfIK-UFhFimAFkt-1" vertex="1">
          <mxGeometry y="26" width="130" height="8" as="geometry" />
        </mxCell>
        <mxCell id="8c5ajKfIK-UFhFimAFkt-5" value="MyShelfie" style="swimlane;fontStyle=1;align=center;verticalAlign=top;childLayout=stackLayout;horizontal=1;startSize=26;horizontalStack=0;resizeParent=1;resizeParentMax=0;resizeLast=0;collapsible=1;marginBottom=0;whiteSpace=wrap;html=1;" parent="WIyWlLk6GJQsqaUBKTNV-1" vertex="1">
          <mxGeometry x="-1620" y="212" width="160" height="34" as="geometry" />
        </mxCell>
        <mxCell id="8c5ajKfIK-UFhFimAFkt-7" value="" style="line;strokeWidth=1;fillColor=none;align=left;verticalAlign=middle;spacingTop=-1;spacingLeft=3;spacingRight=3;rotatable=0;labelPosition=right;points=[];portConstraint=eastwest;strokeColor=inherit;" parent="8c5ajKfIK-UFhFimAFkt-5" vertex="1">
          <mxGeometry y="26" width="160" height="8" as="geometry" />
        </mxCell>
        <mxCell id="8c5ajKfIK-UFhFimAFkt-9" value="Player" style="swimlane;fontStyle=1;align=center;verticalAlign=top;childLayout=stackLayout;horizontal=1;startSize=26;horizontalStack=0;resizeParent=1;resizeParentMax=0;resizeLast=0;collapsible=1;marginBottom=0;whiteSpace=wrap;html=1;" parent="WIyWlLk6GJQsqaUBKTNV-1" vertex="1">
          <mxGeometry x="-2140" y="112" width="160" height="34" as="geometry" />
        </mxCell>
        <mxCell id="8c5ajKfIK-UFhFimAFkt-11" value="" style="line;strokeWidth=1;fillColor=none;align=left;verticalAlign=middle;spacingTop=-1;spacingLeft=3;spacingRight=3;rotatable=0;labelPosition=right;points=[];portConstraint=eastwest;strokeColor=inherit;" parent="8c5ajKfIK-UFhFimAFkt-9" vertex="1">
          <mxGeometry y="26" width="160" height="8" as="geometry" />
        </mxCell>
        <mxCell id="8c5ajKfIK-UFhFimAFkt-13" value="BoardGame" style="swimlane;fontStyle=1;align=center;verticalAlign=top;childLayout=stackLayout;horizontal=1;startSize=26;horizontalStack=0;resizeParent=1;resizeParentMax=0;resizeLast=0;collapsible=1;marginBottom=0;whiteSpace=wrap;html=1;" parent="WIyWlLk6GJQsqaUBKTNV-1" vertex="1">
          <mxGeometry x="-2340" y="322" width="160" height="34" as="geometry" />
        </mxCell>
        <mxCell id="8c5ajKfIK-UFhFimAFkt-15" value="" style="line;strokeWidth=1;fillColor=none;align=left;verticalAlign=middle;spacingTop=-1;spacingLeft=3;spacingRight=3;rotatable=0;labelPosition=right;points=[];portConstraint=eastwest;strokeColor=inherit;" parent="8c5ajKfIK-UFhFimAFkt-13" vertex="1">
          <mxGeometry y="26" width="160" height="8" as="geometry" />
        </mxCell>
        <mxCell id="8c5ajKfIK-UFhFimAFkt-17" value="Game" style="swimlane;fontStyle=1;align=center;verticalAlign=top;childLayout=stackLayout;horizontal=1;startSize=26;horizontalStack=0;resizeParent=1;resizeParentMax=0;resizeLast=0;collapsible=1;marginBottom=0;whiteSpace=wrap;html=1;" parent="WIyWlLk6GJQsqaUBKTNV-1" vertex="1">
          <mxGeometry x="-2345" y="186" width="160" height="34" as="geometry" />
        </mxCell>
        <mxCell id="8c5ajKfIK-UFhFimAFkt-19" value="" style="line;strokeWidth=1;fillColor=none;align=left;verticalAlign=middle;spacingTop=-1;spacingLeft=3;spacingRight=3;rotatable=0;labelPosition=right;points=[];portConstraint=eastwest;strokeColor=inherit;" parent="8c5ajKfIK-UFhFimAFkt-17" vertex="1">
          <mxGeometry y="26" width="160" height="8" as="geometry" />
        </mxCell>
        <mxCell id="8c5ajKfIK-UFhFimAFkt-21" value="ScoringToken" style="swimlane;fontStyle=1;align=center;verticalAlign=top;childLayout=stackLayout;horizontal=1;startSize=26;horizontalStack=0;resizeParent=1;resizeParentMax=0;resizeLast=0;collapsible=1;marginBottom=0;whiteSpace=wrap;html=1;" parent="WIyWlLk6GJQsqaUBKTNV-1" vertex="1">
          <mxGeometry x="-1920" y="382" width="160" height="34" as="geometry" />
        </mxCell>
        <mxCell id="8c5ajKfIK-UFhFimAFkt-23" value="" style="line;strokeWidth=1;fillColor=none;align=left;verticalAlign=middle;spacingTop=-1;spacingLeft=3;spacingRight=3;rotatable=0;labelPosition=right;points=[];portConstraint=eastwest;strokeColor=inherit;" parent="8c5ajKfIK-UFhFimAFkt-21" vertex="1">
          <mxGeometry y="26" width="160" height="8" as="geometry" />
        </mxCell>
        <mxCell id="8c5ajKfIK-UFhFimAFkt-25" value="PersonalGoalCard" style="swimlane;fontStyle=1;align=center;verticalAlign=top;childLayout=stackLayout;horizontal=1;startSize=26;horizontalStack=0;resizeParent=1;resizeParentMax=0;resizeLast=0;collapsible=1;marginBottom=0;whiteSpace=wrap;html=1;" parent="WIyWlLk6GJQsqaUBKTNV-1" vertex="1">
          <mxGeometry x="-2335" y="492" width="160" height="34" as="geometry" />
        </mxCell>
        <mxCell id="8c5ajKfIK-UFhFimAFkt-27" value="" style="line;strokeWidth=1;fillColor=none;align=left;verticalAlign=middle;spacingTop=-1;spacingLeft=3;spacingRight=3;rotatable=0;labelPosition=right;points=[];portConstraint=eastwest;strokeColor=inherit;" parent="8c5ajKfIK-UFhFimAFkt-25" vertex="1">
          <mxGeometry y="26" width="160" height="8" as="geometry" />
        </mxCell>
        <mxCell id="8c5ajKfIK-UFhFimAFkt-29" value="CommonGoalCard" style="swimlane;fontStyle=1;align=center;verticalAlign=top;childLayout=stackLayout;horizontal=1;startSize=26;horizontalStack=0;resizeParent=1;resizeParentMax=0;resizeLast=0;collapsible=1;marginBottom=0;whiteSpace=wrap;html=1;" parent="WIyWlLk6GJQsqaUBKTNV-1" vertex="1">
          <mxGeometry x="-2080" y="512" width="160" height="34" as="geometry" />
        </mxCell>
        <mxCell id="8c5ajKfIK-UFhFimAFkt-31" value="" style="line;strokeWidth=1;fillColor=none;align=left;verticalAlign=middle;spacingTop=-1;spacingLeft=3;spacingRight=3;rotatable=0;labelPosition=right;points=[];portConstraint=eastwest;strokeColor=inherit;" parent="8c5ajKfIK-UFhFimAFkt-29" vertex="1">
          <mxGeometry y="26" width="160" height="8" as="geometry" />
        </mxCell>
        <mxCell id="8c5ajKfIK-UFhFimAFkt-33" value="PlayerController" style="swimlane;fontStyle=1;align=center;verticalAlign=top;childLayout=stackLayout;horizontal=1;startSize=26;horizontalStack=0;resizeParent=1;resizeParentMax=0;resizeLast=0;collapsible=1;marginBottom=0;whiteSpace=wrap;html=1;" parent="WIyWlLk6GJQsqaUBKTNV-1" vertex="1">
          <mxGeometry x="-1670" y="42" width="160" height="34" as="geometry" />
        </mxCell>
        <mxCell id="8c5ajKfIK-UFhFimAFkt-35" value="" style="line;strokeWidth=1;fillColor=none;align=left;verticalAlign=middle;spacingTop=-1;spacingLeft=3;spacingRight=3;rotatable=0;labelPosition=right;points=[];portConstraint=eastwest;strokeColor=inherit;" parent="8c5ajKfIK-UFhFimAFkt-33" vertex="1">
          <mxGeometry y="26" width="160" height="8" as="geometry" />
        </mxCell>
        <mxCell id="8c5ajKfIK-UFhFimAFkt-37" value="{abstract}GoalCard" style="swimlane;fontStyle=1;align=center;verticalAlign=top;childLayout=stackLayout;horizontal=1;startSize=26;horizontalStack=0;resizeParent=1;resizeParentMax=0;resizeLast=0;collapsible=1;marginBottom=0;whiteSpace=wrap;html=1;" parent="WIyWlLk6GJQsqaUBKTNV-1" vertex="1">
          <mxGeometry x="-2130" y="442" width="160" height="34" as="geometry" />
        </mxCell>
        <mxCell id="8c5ajKfIK-UFhFimAFkt-39" value="" style="line;strokeWidth=1;fillColor=none;align=left;verticalAlign=middle;spacingTop=-1;spacingLeft=3;spacingRight=3;rotatable=0;labelPosition=right;points=[];portConstraint=eastwest;strokeColor=inherit;" parent="8c5ajKfIK-UFhFimAFkt-37" vertex="1">
          <mxGeometry y="26" width="160" height="8" as="geometry" />
        </mxCell>
        <mxCell id="8c5ajKfIK-UFhFimAFkt-41" value="GameController" style="swimlane;fontStyle=1;align=center;verticalAlign=top;childLayout=stackLayout;horizontal=1;startSize=26;horizontalStack=0;resizeParent=1;resizeParentMax=0;resizeLast=0;collapsible=1;marginBottom=0;whiteSpace=wrap;html=1;" parent="WIyWlLk6GJQsqaUBKTNV-1" vertex="1">
          <mxGeometry x="-1430" y="116" width="160" height="34" as="geometry" />
        </mxCell>
        <mxCell id="8c5ajKfIK-UFhFimAFkt-43" value="" style="line;strokeWidth=1;fillColor=none;align=left;verticalAlign=middle;spacingTop=-1;spacingLeft=3;spacingRight=3;rotatable=0;labelPosition=right;points=[];portConstraint=eastwest;strokeColor=inherit;" parent="8c5ajKfIK-UFhFimAFkt-41" vertex="1">
          <mxGeometry y="26" width="160" height="8" as="geometry" />
        </mxCell>
        <mxCell id="8c5ajKfIK-UFhFimAFkt-45" value="ItemTile" style="swimlane;fontStyle=1;align=center;verticalAlign=top;childLayout=stackLayout;horizontal=1;startSize=26;horizontalStack=0;resizeParent=1;resizeParentMax=0;resizeLast=0;collapsible=1;marginBottom=0;whiteSpace=wrap;html=1;" parent="WIyWlLk6GJQsqaUBKTNV-1" vertex="1">
          <mxGeometry x="-2110" y="288" width="160" height="34" as="geometry" />
        </mxCell>
        <mxCell id="8c5ajKfIK-UFhFimAFkt-47" value="" style="line;strokeWidth=1;fillColor=none;align=left;verticalAlign=middle;spacingTop=-1;spacingLeft=3;spacingRight=3;rotatable=0;labelPosition=right;points=[];portConstraint=eastwest;strokeColor=inherit;" parent="8c5ajKfIK-UFhFimAFkt-45" vertex="1">
          <mxGeometry y="26" width="160" height="8" as="geometry" />
        </mxCell>
        <mxCell id="8c5ajKfIK-UFhFimAFkt-49" value="LobbyManager" style="swimlane;fontStyle=1;align=center;verticalAlign=top;childLayout=stackLayout;horizontal=1;startSize=26;horizontalStack=0;resizeParent=1;resizeParentMax=0;resizeLast=0;collapsible=1;marginBottom=0;whiteSpace=wrap;html=1;" parent="WIyWlLk6GJQsqaUBKTNV-1" vertex="1">
          <mxGeometry x="-1440" y="462" width="160" height="34" as="geometry" />
        </mxCell>
        <mxCell id="8c5ajKfIK-UFhFimAFkt-51" value="" style="line;strokeWidth=1;fillColor=none;align=left;verticalAlign=middle;spacingTop=-1;spacingLeft=3;spacingRight=3;rotatable=0;labelPosition=right;points=[];portConstraint=eastwest;strokeColor=inherit;" parent="8c5ajKfIK-UFhFimAFkt-49" vertex="1">
          <mxGeometry y="26" width="160" height="8" as="geometry" />
        </mxCell>
        <mxCell id="8c5ajKfIK-UFhFimAFkt-53" value="LobbyController" style="swimlane;fontStyle=1;align=center;verticalAlign=top;childLayout=stackLayout;horizontal=1;startSize=26;horizontalStack=0;resizeParent=1;resizeParentMax=0;resizeLast=0;collapsible=1;marginBottom=0;whiteSpace=wrap;html=1;" parent="WIyWlLk6GJQsqaUBKTNV-1" vertex="1">
          <mxGeometry x="-1550" y="338" width="160" height="34" as="geometry" />
        </mxCell>
        <mxCell id="8c5ajKfIK-UFhFimAFkt-55" value="" style="line;strokeWidth=1;fillColor=none;align=left;verticalAlign=middle;spacingTop=-1;spacingLeft=3;spacingRight=3;rotatable=0;labelPosition=right;points=[];portConstraint=eastwest;strokeColor=inherit;" parent="8c5ajKfIK-UFhFimAFkt-53" vertex="1">
          <mxGeometry y="26" width="160" height="8" as="geometry" />
        </mxCell>
        <mxCell id="8c5ajKfIK-UFhFimAFkt-57" value="Lobby" style="swimlane;fontStyle=1;align=center;verticalAlign=top;childLayout=stackLayout;horizontal=1;startSize=26;horizontalStack=0;resizeParent=1;resizeParentMax=0;resizeLast=0;collapsible=1;marginBottom=0;whiteSpace=wrap;html=1;" parent="WIyWlLk6GJQsqaUBKTNV-1" vertex="1">
          <mxGeometry x="-2040" y="222" width="160" height="34" as="geometry" />
        </mxCell>
        <mxCell id="8c5ajKfIK-UFhFimAFkt-59" value="" style="line;strokeWidth=1;fillColor=none;align=left;verticalAlign=middle;spacingTop=-1;spacingLeft=3;spacingRight=3;rotatable=0;labelPosition=right;points=[];portConstraint=eastwest;strokeColor=inherit;" parent="8c5ajKfIK-UFhFimAFkt-57" vertex="1">
          <mxGeometry y="26" width="160" height="8" as="geometry" />
        </mxCell>
        <mxCell id="8c5ajKfIK-UFhFimAFkt-61" value="VirtualLobbyView" style="swimlane;fontStyle=1;align=center;verticalAlign=top;childLayout=stackLayout;horizontal=1;startSize=26;horizontalStack=0;resizeParent=1;resizeParentMax=0;resizeLast=0;collapsible=1;marginBottom=0;whiteSpace=wrap;html=1;" parent="WIyWlLk6GJQsqaUBKTNV-1" vertex="1">
          <mxGeometry x="-1955" y="762" width="160" height="34" as="geometry" />
        </mxCell>
        <mxCell id="8c5ajKfIK-UFhFimAFkt-63" value="" style="line;strokeWidth=1;fillColor=none;align=left;verticalAlign=middle;spacingTop=-1;spacingLeft=3;spacingRight=3;rotatable=0;labelPosition=right;points=[];portConstraint=eastwest;strokeColor=inherit;" parent="8c5ajKfIK-UFhFimAFkt-61" vertex="1">
          <mxGeometry y="26" width="160" height="8" as="geometry" />
        </mxCell>
        <mxCell id="8c5ajKfIK-UFhFimAFkt-65" value="VirtualPlayerView" style="swimlane;fontStyle=1;align=center;verticalAlign=top;childLayout=stackLayout;horizontal=1;startSize=26;horizontalStack=0;resizeParent=1;resizeParentMax=0;resizeLast=0;collapsible=1;marginBottom=0;whiteSpace=wrap;html=1;" parent="WIyWlLk6GJQsqaUBKTNV-1" vertex="1">
          <mxGeometry x="-2105" y="706" width="160" height="34" as="geometry" />
        </mxCell>
        <mxCell id="8c5ajKfIK-UFhFimAFkt-67" value="" style="line;strokeWidth=1;fillColor=none;align=left;verticalAlign=middle;spacingTop=-1;spacingLeft=3;spacingRight=3;rotatable=0;labelPosition=right;points=[];portConstraint=eastwest;strokeColor=inherit;" parent="8c5ajKfIK-UFhFimAFkt-65" vertex="1">
          <mxGeometry y="26" width="160" height="8" as="geometry" />
        </mxCell>
        <mxCell id="8c5ajKfIK-UFhFimAFkt-69" value="VirtualGameView" style="swimlane;fontStyle=1;align=center;verticalAlign=top;childLayout=stackLayout;horizontal=1;startSize=26;horizontalStack=0;resizeParent=1;resizeParentMax=0;resizeLast=0;collapsible=1;marginBottom=0;whiteSpace=wrap;html=1;" parent="WIyWlLk6GJQsqaUBKTNV-1" vertex="1">
          <mxGeometry x="-2345" y="686" width="160" height="34" as="geometry" />
        </mxCell>
        <mxCell id="8c5ajKfIK-UFhFimAFkt-71" value="" style="line;strokeWidth=1;fillColor=none;align=left;verticalAlign=middle;spacingTop=-1;spacingLeft=3;spacingRight=3;rotatable=0;labelPosition=right;points=[];portConstraint=eastwest;strokeColor=inherit;" parent="8c5ajKfIK-UFhFimAFkt-69" vertex="1">
          <mxGeometry y="26" width="160" height="8" as="geometry" />
        </mxCell>
        <mxCell id="8c5ajKfIK-UFhFimAFkt-73" value="ClientManager" style="swimlane;fontStyle=1;align=center;verticalAlign=top;childLayout=stackLayout;horizontal=1;startSize=26;horizontalStack=0;resizeParent=1;resizeParentMax=0;resizeLast=0;collapsible=1;marginBottom=0;whiteSpace=wrap;html=1;" parent="WIyWlLk6GJQsqaUBKTNV-1" vertex="1">
          <mxGeometry x="-1530" y="872" width="160" height="34" as="geometry" />
        </mxCell>
        <mxCell id="8c5ajKfIK-UFhFimAFkt-75" value="" style="line;strokeWidth=1;fillColor=none;align=left;verticalAlign=middle;spacingTop=-1;spacingLeft=3;spacingRight=3;rotatable=0;labelPosition=right;points=[];portConstraint=eastwest;strokeColor=inherit;" parent="8c5ajKfIK-UFhFimAFkt-73" vertex="1">
          <mxGeometry y="26" width="160" height="8" as="geometry" />
        </mxCell>
        <mxCell id="8c5ajKfIK-UFhFimAFkt-77" value="Server" style="swimlane;fontStyle=1;align=center;verticalAlign=top;childLayout=stackLayout;horizontal=1;startSize=26;horizontalStack=0;resizeParent=1;resizeParentMax=0;resizeLast=0;collapsible=1;marginBottom=0;whiteSpace=wrap;html=1;" parent="WIyWlLk6GJQsqaUBKTNV-1" vertex="1">
          <mxGeometry x="-1605" y="738" width="160" height="34" as="geometry" />
        </mxCell>
        <mxCell id="8c5ajKfIK-UFhFimAFkt-79" value="" style="line;strokeWidth=1;fillColor=none;align=left;verticalAlign=middle;spacingTop=-1;spacingLeft=3;spacingRight=3;rotatable=0;labelPosition=right;points=[];portConstraint=eastwest;strokeColor=inherit;" parent="8c5ajKfIK-UFhFimAFkt-77" vertex="1">
          <mxGeometry y="26" width="160" height="8" as="geometry" />
        </mxCell>
        <mxCell id="8c5ajKfIK-UFhFimAFkt-81" value="ServerManager" style="swimlane;fontStyle=1;align=center;verticalAlign=top;childLayout=stackLayout;horizontal=1;startSize=26;horizontalStack=0;resizeParent=1;resizeParentMax=0;resizeLast=0;collapsible=1;marginBottom=0;whiteSpace=wrap;html=1;" parent="WIyWlLk6GJQsqaUBKTNV-1" vertex="1">
          <mxGeometry x="-1720" y="612" width="160" height="34" as="geometry" />
        </mxCell>
        <mxCell id="8c5ajKfIK-UFhFimAFkt-83" value="" style="line;strokeWidth=1;fillColor=none;align=left;verticalAlign=middle;spacingTop=-1;spacingLeft=3;spacingRight=3;rotatable=0;labelPosition=right;points=[];portConstraint=eastwest;strokeColor=inherit;" parent="8c5ajKfIK-UFhFimAFkt-81" vertex="1">
          <mxGeometry y="26" width="160" height="8" as="geometry" />
        </mxCell>
        <mxCell id="8c5ajKfIK-UFhFimAFkt-85" value="" style="endArrow=none;endFill=0;endSize=24;html=1;rounded=0;exitX=1;exitY=0;exitDx=0;exitDy=0;entryX=0.25;entryY=0;entryDx=0;entryDy=0;" parent="WIyWlLk6GJQsqaUBKTNV-1" source="8c5ajKfIK-UFhFimAFkt-1" target="8c5ajKfIK-UFhFimAFkt-9" edge="1">
          <mxGeometry width="160" relative="1" as="geometry">
            <mxPoint x="-2280" y="94.63" as="sourcePoint" />
            <mxPoint x="-2120" y="94.63" as="targetPoint" />
            <Array as="points">
              <mxPoint x="-2100" y="42" />
            </Array>
          </mxGeometry>
        </mxCell>
        <mxCell id="8c5ajKfIK-UFhFimAFkt-86" value="owns" style="text;html=1;align=center;verticalAlign=middle;resizable=0;points=[];autosize=1;strokeColor=none;fillColor=none;" parent="WIyWlLk6GJQsqaUBKTNV-1" vertex="1">
          <mxGeometry x="-2150" y="20" width="50" height="30" as="geometry" />
        </mxCell>
        <mxCell id="8c5ajKfIK-UFhFimAFkt-87" value="1" style="text;html=1;align=center;verticalAlign=middle;resizable=0;points=[];autosize=1;strokeColor=none;fillColor=none;" parent="WIyWlLk6GJQsqaUBKTNV-1" vertex="1">
          <mxGeometry x="-2210" y="46" width="30" height="30" as="geometry" />
        </mxCell>
        <mxCell id="8c5ajKfIK-UFhFimAFkt-88" value="1" style="text;html=1;align=center;verticalAlign=middle;resizable=0;points=[];autosize=1;strokeColor=none;fillColor=none;" parent="WIyWlLk6GJQsqaUBKTNV-1" vertex="1">
          <mxGeometry x="-2110" y="82" width="30" height="30" as="geometry" />
        </mxCell>
        <mxCell id="8c5ajKfIK-UFhFimAFkt-89" value="" style="endArrow=diamondThin;endFill=1;endSize=24;html=1;rounded=0;exitX=0;exitY=0.5;exitDx=0;exitDy=0;entryX=0.463;entryY=-0.004;entryDx=0;entryDy=0;entryPerimeter=0;" parent="WIyWlLk6GJQsqaUBKTNV-1" source="8c5ajKfIK-UFhFimAFkt-9" target="8c5ajKfIK-UFhFimAFkt-17" edge="1">
          <mxGeometry width="160" relative="1" as="geometry">
            <mxPoint x="-2230" y="146" as="sourcePoint" />
            <mxPoint x="-2045" y="182" as="targetPoint" />
            <Array as="points">
              <mxPoint x="-2270" y="129" />
            </Array>
          </mxGeometry>
        </mxCell>
        <mxCell id="8c5ajKfIK-UFhFimAFkt-90" value="1" style="text;html=1;align=center;verticalAlign=middle;resizable=0;points=[];autosize=1;strokeColor=none;fillColor=none;rotation=0;" parent="WIyWlLk6GJQsqaUBKTNV-1" vertex="1">
          <mxGeometry x="-2305" y="156" width="30" height="30" as="geometry" />
        </mxCell>
        <mxCell id="8c5ajKfIK-UFhFimAFkt-91" value="1..4" style="text;html=1;align=center;verticalAlign=middle;resizable=0;points=[];autosize=1;strokeColor=none;fillColor=none;" parent="WIyWlLk6GJQsqaUBKTNV-1" vertex="1">
          <mxGeometry x="-2180" y="100" width="40" height="30" as="geometry" />
        </mxCell>
        <mxCell id="8c5ajKfIK-UFhFimAFkt-92" value="" style="endArrow=diamondThin;endFill=1;endSize=24;html=1;rounded=0;entryX=0;entryY=0.25;entryDx=0;entryDy=0;" parent="WIyWlLk6GJQsqaUBKTNV-1" target="8c5ajKfIK-UFhFimAFkt-17" edge="1">
          <mxGeometry width="160" relative="1" as="geometry">
            <mxPoint x="-2340" y="332" as="sourcePoint" />
            <mxPoint x="-2365" y="222" as="targetPoint" />
            <Array as="points">
              <mxPoint x="-2370" y="332" />
              <mxPoint x="-2370" y="192" />
            </Array>
          </mxGeometry>
        </mxCell>
        <mxCell id="8c5ajKfIK-UFhFimAFkt-93" value="1" style="text;html=1;align=center;verticalAlign=middle;resizable=0;points=[];autosize=1;strokeColor=none;fillColor=none;" parent="WIyWlLk6GJQsqaUBKTNV-1" vertex="1">
          <mxGeometry x="-2375" y="156" width="30" height="30" as="geometry" />
        </mxCell>
        <mxCell id="8c5ajKfIK-UFhFimAFkt-94" value="1" style="text;html=1;align=center;verticalAlign=middle;resizable=0;points=[];autosize=1;strokeColor=none;fillColor=none;" parent="WIyWlLk6GJQsqaUBKTNV-1" vertex="1">
          <mxGeometry x="-2365" y="300" width="30" height="30" as="geometry" />
        </mxCell>
        <mxCell id="8c5ajKfIK-UFhFimAFkt-95" value="" style="endArrow=open;endFill=0;endSize=24;html=1;rounded=0;exitX=0.25;exitY=0;exitDx=0;exitDy=0;entryX=0.75;entryY=0;entryDx=0;entryDy=0;" parent="WIyWlLk6GJQsqaUBKTNV-1" source="8c5ajKfIK-UFhFimAFkt-13" target="8c5ajKfIK-UFhFimAFkt-13" edge="1">
          <mxGeometry width="160" relative="1" as="geometry">
            <mxPoint x="-2240" y="389" as="sourcePoint" />
            <mxPoint x="-2385" y="442" as="targetPoint" />
            <Array as="points">
              <mxPoint x="-2300" y="272" />
              <mxPoint x="-2220" y="272" />
            </Array>
          </mxGeometry>
        </mxCell>
        <mxCell id="8c5ajKfIK-UFhFimAFkt-96" value="" style="endArrow=none;endFill=0;endSize=24;html=1;rounded=0;exitX=0.719;exitY=-0.035;exitDx=0;exitDy=0;entryX=0;entryY=0.5;entryDx=0;entryDy=0;exitPerimeter=0;" parent="WIyWlLk6GJQsqaUBKTNV-1" source="8c5ajKfIK-UFhFimAFkt-9" target="8c5ajKfIK-UFhFimAFkt-33" edge="1">
          <mxGeometry width="160" relative="1" as="geometry">
            <mxPoint x="-1770" y="72" as="sourcePoint" />
            <mxPoint x="-1640" y="142" as="targetPoint" />
            <Array as="points">
              <mxPoint x="-2025" y="59" />
            </Array>
          </mxGeometry>
        </mxCell>
        <mxCell id="8c5ajKfIK-UFhFimAFkt-97" value="1" style="text;html=1;align=center;verticalAlign=middle;resizable=0;points=[];autosize=1;strokeColor=none;fillColor=none;" parent="WIyWlLk6GJQsqaUBKTNV-1" vertex="1">
          <mxGeometry x="-2025" y="80" width="30" height="30" as="geometry" />
        </mxCell>
        <mxCell id="8c5ajKfIK-UFhFimAFkt-98" value="1" style="text;html=1;align=center;verticalAlign=middle;resizable=0;points=[];autosize=1;strokeColor=none;fillColor=none;" parent="WIyWlLk6GJQsqaUBKTNV-1" vertex="1">
          <mxGeometry x="-1710" y="32" width="30" height="30" as="geometry" />
        </mxCell>
        <mxCell id="8c5ajKfIK-UFhFimAFkt-99" value="" style="endArrow=none;endFill=0;endSize=24;html=1;rounded=0;exitX=1;exitY=0.5;exitDx=0;exitDy=0;entryX=0.5;entryY=0;entryDx=0;entryDy=0;" parent="WIyWlLk6GJQsqaUBKTNV-1" source="8c5ajKfIK-UFhFimAFkt-33" target="8c5ajKfIK-UFhFimAFkt-41" edge="1">
          <mxGeometry width="160" relative="1" as="geometry">
            <mxPoint x="-1380" y="62" as="sourcePoint" />
            <mxPoint x="-1250" y="132" as="targetPoint" />
            <Array as="points">
              <mxPoint x="-1350" y="59" />
              <mxPoint x="-1350" y="92" />
            </Array>
          </mxGeometry>
        </mxCell>
        <mxCell id="8c5ajKfIK-UFhFimAFkt-100" value="1..4" style="text;html=1;align=center;verticalAlign=middle;resizable=0;points=[];autosize=1;strokeColor=none;fillColor=none;" parent="WIyWlLk6GJQsqaUBKTNV-1" vertex="1">
          <mxGeometry x="-1510" y="30" width="40" height="30" as="geometry" />
        </mxCell>
        <mxCell id="8c5ajKfIK-UFhFimAFkt-101" value="1" style="text;html=1;align=center;verticalAlign=middle;resizable=0;points=[];autosize=1;strokeColor=none;fillColor=none;" parent="WIyWlLk6GJQsqaUBKTNV-1" vertex="1">
          <mxGeometry x="-1345" y="90" width="30" height="30" as="geometry" />
        </mxCell>
        <mxCell id="8c5ajKfIK-UFhFimAFkt-102" value="" style="endArrow=none;endFill=0;endSize=24;html=1;rounded=0;exitX=1;exitY=0.25;exitDx=0;exitDy=0;entryX=0;entryY=0.5;entryDx=0;entryDy=0;" parent="WIyWlLk6GJQsqaUBKTNV-1" source="8c5ajKfIK-UFhFimAFkt-17" target="8c5ajKfIK-UFhFimAFkt-41" edge="1">
          <mxGeometry width="160" relative="1" as="geometry">
            <mxPoint x="-1890" y="182" as="sourcePoint" />
            <mxPoint x="-1760" y="252" as="targetPoint" />
            <Array as="points">
              <mxPoint x="-1780" y="195" />
              <mxPoint x="-1610" y="132" />
            </Array>
          </mxGeometry>
        </mxCell>
        <mxCell id="8c5ajKfIK-UFhFimAFkt-103" value="1" style="text;html=1;align=center;verticalAlign=middle;resizable=0;points=[];autosize=1;strokeColor=none;fillColor=none;" parent="WIyWlLk6GJQsqaUBKTNV-1" vertex="1">
          <mxGeometry x="-1475" y="100" width="30" height="30" as="geometry" />
        </mxCell>
        <mxCell id="8c5ajKfIK-UFhFimAFkt-104" value="1" style="text;html=1;align=center;verticalAlign=middle;resizable=0;points=[];autosize=1;strokeColor=none;fillColor=none;" parent="WIyWlLk6GJQsqaUBKTNV-1" vertex="1">
          <mxGeometry x="-2190" y="162" width="30" height="30" as="geometry" />
        </mxCell>
        <mxCell id="8c5ajKfIK-UFhFimAFkt-105" value="" style="endArrow=diamondThin;endFill=1;endSize=24;html=1;rounded=0;exitX=1;exitY=0.25;exitDx=0;exitDy=0;entryX=0.313;entryY=0;entryDx=0;entryDy=0;entryPerimeter=0;" parent="WIyWlLk6GJQsqaUBKTNV-1" source="8c5ajKfIK-UFhFimAFkt-45" target="8c5ajKfIK-UFhFimAFkt-5" edge="1">
          <mxGeometry width="160" relative="1" as="geometry">
            <mxPoint x="-1780" y="280" as="sourcePoint" />
            <mxPoint x="-1650" y="350" as="targetPoint" />
            <Array as="points">
              <mxPoint x="-1810" y="280" />
              <mxPoint x="-1690" y="212" />
              <mxPoint x="-1630" y="192" />
              <mxPoint x="-1590" y="192" />
              <mxPoint x="-1570" y="192" />
            </Array>
          </mxGeometry>
        </mxCell>
        <mxCell id="8c5ajKfIK-UFhFimAFkt-106" value="" style="endArrow=diamondThin;endFill=1;endSize=24;html=1;rounded=0;exitX=0.5;exitY=0;exitDx=0;exitDy=0;" parent="WIyWlLk6GJQsqaUBKTNV-1" source="8c5ajKfIK-UFhFimAFkt-37" edge="1">
          <mxGeometry width="160" relative="1" as="geometry">
            <mxPoint x="-1870" y="292" as="sourcePoint" />
            <mxPoint x="-1620" y="222" as="targetPoint" />
            <Array as="points">
              <mxPoint x="-2050" y="372" />
              <mxPoint x="-1810" y="302" />
              <mxPoint x="-1680" y="222" />
            </Array>
          </mxGeometry>
        </mxCell>
        <mxCell id="8c5ajKfIK-UFhFimAFkt-107" value="" style="endArrow=diamondThin;endFill=1;endSize=24;html=1;rounded=0;exitX=0.5;exitY=0;exitDx=0;exitDy=0;entryX=0;entryY=0.75;entryDx=0;entryDy=0;" parent="WIyWlLk6GJQsqaUBKTNV-1" source="8c5ajKfIK-UFhFimAFkt-21" target="8c5ajKfIK-UFhFimAFkt-5" edge="1">
          <mxGeometry width="160" relative="1" as="geometry">
            <mxPoint x="-1780" y="260" as="sourcePoint" />
            <mxPoint x="-1650" y="330" as="targetPoint" />
            <Array as="points">
              <mxPoint x="-1810" y="322" />
              <mxPoint x="-1670" y="238" />
            </Array>
          </mxGeometry>
        </mxCell>
        <mxCell id="8c5ajKfIK-UFhFimAFkt-108" value="1" style="text;html=1;align=center;verticalAlign=middle;resizable=0;points=[];autosize=1;strokeColor=none;fillColor=none;" parent="WIyWlLk6GJQsqaUBKTNV-1" vertex="1">
          <mxGeometry x="-1565" y="160" width="30" height="30" as="geometry" />
        </mxCell>
        <mxCell id="8c5ajKfIK-UFhFimAFkt-109" value="1" style="text;html=1;align=center;verticalAlign=middle;resizable=0;points=[];autosize=1;strokeColor=none;fillColor=none;" parent="WIyWlLk6GJQsqaUBKTNV-1" vertex="1">
          <mxGeometry x="-1665" y="240" width="30" height="30" as="geometry" />
        </mxCell>
        <mxCell id="8c5ajKfIK-UFhFimAFkt-110" value="1" style="text;html=1;align=center;verticalAlign=middle;resizable=0;points=[];autosize=1;strokeColor=none;fillColor=none;" parent="WIyWlLk6GJQsqaUBKTNV-1" vertex="1">
          <mxGeometry x="-1655" y="190" width="30" height="30" as="geometry" />
        </mxCell>
        <mxCell id="8c5ajKfIK-UFhFimAFkt-111" value="8" style="text;html=1;align=center;verticalAlign=middle;resizable=0;points=[];autosize=1;strokeColor=none;fillColor=none;" parent="WIyWlLk6GJQsqaUBKTNV-1" vertex="1">
          <mxGeometry x="-1825" y="360" width="30" height="30" as="geometry" />
        </mxCell>
        <mxCell id="8c5ajKfIK-UFhFimAFkt-112" value="1..24" style="text;html=1;align=center;verticalAlign=middle;resizable=0;points=[];autosize=1;strokeColor=none;fillColor=none;" parent="WIyWlLk6GJQsqaUBKTNV-1" vertex="1">
          <mxGeometry x="-2055" y="410" width="50" height="30" as="geometry" />
        </mxCell>
        <mxCell id="8c5ajKfIK-UFhFimAFkt-113" value="1..132" style="text;html=1;align=center;verticalAlign=middle;resizable=0;points=[];autosize=1;strokeColor=none;fillColor=none;" parent="WIyWlLk6GJQsqaUBKTNV-1" vertex="1">
          <mxGeometry x="-1990" y="260" width="60" height="30" as="geometry" />
        </mxCell>
        <mxCell id="8c5ajKfIK-UFhFimAFkt-115" value="" style="endArrow=none;endFill=0;endSize=24;html=1;rounded=0;exitX=1;exitY=0.25;exitDx=0;exitDy=0;entryX=0.807;entryY=0.025;entryDx=0;entryDy=0;entryPerimeter=0;startArrow=block;startFill=0;" parent="WIyWlLk6GJQsqaUBKTNV-1" source="8c5ajKfIK-UFhFimAFkt-37" target="8c5ajKfIK-UFhFimAFkt-29" edge="1">
          <mxGeometry width="160" relative="1" as="geometry">
            <mxPoint x="-2080" y="532" as="sourcePoint" />
            <mxPoint x="-1950" y="602" as="targetPoint" />
            <Array as="points">
              <mxPoint x="-1950" y="451" />
            </Array>
          </mxGeometry>
        </mxCell>
        <mxCell id="8c5ajKfIK-UFhFimAFkt-116" value="" style="endArrow=none;endFill=0;endSize=24;html=1;rounded=0;exitX=0;exitY=0.25;exitDx=0;exitDy=0;startArrow=block;startFill=0;entryX=0.635;entryY=0.009;entryDx=0;entryDy=0;entryPerimeter=0;" parent="WIyWlLk6GJQsqaUBKTNV-1" source="8c5ajKfIK-UFhFimAFkt-37" target="8c5ajKfIK-UFhFimAFkt-25" edge="1">
          <mxGeometry width="160" relative="1" as="geometry">
            <mxPoint x="-2240" y="492" as="sourcePoint" />
            <mxPoint x="-2221" y="532" as="targetPoint" />
            <Array as="points">
              <mxPoint x="-2233" y="452" />
            </Array>
          </mxGeometry>
        </mxCell>
        <mxCell id="8c5ajKfIK-UFhFimAFkt-117" value="" style="endArrow=none;endFill=0;endSize=24;html=1;rounded=0;exitX=1;exitY=0.25;exitDx=0;exitDy=0;entryX=0;entryY=0.5;entryDx=0;entryDy=0;startArrow=none;startFill=0;" parent="WIyWlLk6GJQsqaUBKTNV-1" source="8c5ajKfIK-UFhFimAFkt-57" target="8c5ajKfIK-UFhFimAFkt-53" edge="1">
          <mxGeometry width="160" relative="1" as="geometry">
            <mxPoint x="-1710" y="292" as="sourcePoint" />
            <mxPoint x="-1691" y="414" as="targetPoint" />
            <Array as="points">
              <mxPoint x="-1690" y="292" />
            </Array>
          </mxGeometry>
        </mxCell>
        <mxCell id="8c5ajKfIK-UFhFimAFkt-119" value="1" style="text;html=1;align=center;verticalAlign=middle;resizable=0;points=[];autosize=1;strokeColor=none;fillColor=none;" parent="WIyWlLk6GJQsqaUBKTNV-1" vertex="1">
          <mxGeometry x="-1885" y="200" width="30" height="30" as="geometry" />
        </mxCell>
        <mxCell id="8c5ajKfIK-UFhFimAFkt-120" value="1" style="text;html=1;align=center;verticalAlign=middle;resizable=0;points=[];autosize=1;strokeColor=none;fillColor=none;" parent="WIyWlLk6GJQsqaUBKTNV-1" vertex="1">
          <mxGeometry x="-1580" y="322" width="30" height="30" as="geometry" />
        </mxCell>
        <mxCell id="8c5ajKfIK-UFhFimAFkt-121" value="" style="endArrow=none;endFill=0;endSize=24;html=1;rounded=0;exitX=1;exitY=0.5;exitDx=0;exitDy=0;startArrow=none;startFill=0;" parent="WIyWlLk6GJQsqaUBKTNV-1" source="8c5ajKfIK-UFhFimAFkt-53" edge="1">
          <mxGeometry width="160" relative="1" as="geometry">
            <mxPoint x="-1610" y="422" as="sourcePoint" />
            <mxPoint x="-1310" y="462" as="targetPoint" />
            <Array as="points">
              <mxPoint x="-1310" y="355" />
            </Array>
          </mxGeometry>
        </mxCell>
        <mxCell id="8c5ajKfIK-UFhFimAFkt-122" value="1" style="text;html=1;align=center;verticalAlign=middle;resizable=0;points=[];autosize=1;strokeColor=none;fillColor=none;" parent="WIyWlLk6GJQsqaUBKTNV-1" vertex="1">
          <mxGeometry x="-1305" y="430" width="30" height="30" as="geometry" />
        </mxCell>
        <mxCell id="8c5ajKfIK-UFhFimAFkt-123" value="1..n" style="text;html=1;align=center;verticalAlign=middle;resizable=0;points=[];autosize=1;strokeColor=none;fillColor=none;" parent="WIyWlLk6GJQsqaUBKTNV-1" vertex="1">
          <mxGeometry x="-1390" y="322" width="40" height="30" as="geometry" />
        </mxCell>
        <mxCell id="8c5ajKfIK-UFhFimAFkt-124" value="" style="endArrow=none;endFill=0;endSize=24;html=1;rounded=0;exitX=1;exitY=0.25;exitDx=0;exitDy=0;startArrow=none;startFill=0;" parent="WIyWlLk6GJQsqaUBKTNV-1" source="8c5ajKfIK-UFhFimAFkt-9" edge="1">
          <mxGeometry width="160" relative="1" as="geometry">
            <mxPoint x="-1910" y="122" as="sourcePoint" />
            <mxPoint x="-1910" y="222" as="targetPoint" />
            <Array as="points">
              <mxPoint x="-1910" y="120" />
            </Array>
          </mxGeometry>
        </mxCell>
        <mxCell id="8c5ajKfIK-UFhFimAFkt-125" value="1" style="text;html=1;align=center;verticalAlign=middle;resizable=0;points=[];autosize=1;strokeColor=none;fillColor=none;" parent="WIyWlLk6GJQsqaUBKTNV-1" vertex="1">
          <mxGeometry x="-1980" y="90" width="30" height="30" as="geometry" />
        </mxCell>
        <mxCell id="8c5ajKfIK-UFhFimAFkt-126" value="1" style="text;html=1;align=center;verticalAlign=middle;resizable=0;points=[];autosize=1;strokeColor=none;fillColor=none;" parent="WIyWlLk6GJQsqaUBKTNV-1" vertex="1">
          <mxGeometry x="-1945" y="190" width="30" height="30" as="geometry" />
        </mxCell>
        <mxCell id="8c5ajKfIK-UFhFimAFkt-127" value="" style="endArrow=diamondThin;endFill=1;endSize=24;html=1;rounded=0;entryX=0.899;entryY=-0.037;entryDx=0;entryDy=0;entryPerimeter=0;startArrow=none;startFill=0;exitX=1;exitY=0.588;exitDx=0;exitDy=0;exitPerimeter=0;" parent="WIyWlLk6GJQsqaUBKTNV-1" source="8c5ajKfIK-UFhFimAFkt-49" target="8c5ajKfIK-UFhFimAFkt-77" edge="1">
          <mxGeometry width="160" relative="1" as="geometry">
            <mxPoint x="-1280" y="479" as="sourcePoint" />
            <mxPoint x="-1381" y="784" as="targetPoint" />
            <Array as="points">
              <mxPoint x="-1240" y="482" />
              <mxPoint x="-1240" y="662" />
              <mxPoint x="-1461" y="662" />
            </Array>
          </mxGeometry>
        </mxCell>
        <mxCell id="8c5ajKfIK-UFhFimAFkt-128" value="1" style="text;html=1;align=center;verticalAlign=middle;resizable=0;points=[];autosize=1;strokeColor=none;fillColor=none;" parent="WIyWlLk6GJQsqaUBKTNV-1" vertex="1">
          <mxGeometry x="-1465" y="700" width="30" height="30" as="geometry" />
        </mxCell>
        <mxCell id="8c5ajKfIK-UFhFimAFkt-129" value="1" style="text;html=1;align=center;verticalAlign=middle;resizable=0;points=[];autosize=1;strokeColor=none;fillColor=none;" parent="WIyWlLk6GJQsqaUBKTNV-1" vertex="1">
          <mxGeometry x="-1285" y="490" width="30" height="30" as="geometry" />
        </mxCell>
        <mxCell id="8c5ajKfIK-UFhFimAFkt-130" value="" style="endArrow=none;endFill=0;endSize=24;html=1;rounded=0;exitX=1;exitY=0.5;exitDx=0;exitDy=0;startArrow=none;startFill=0;entryX=0.54;entryY=0.018;entryDx=0;entryDy=0;entryPerimeter=0;" parent="WIyWlLk6GJQsqaUBKTNV-1" source="8c5ajKfIK-UFhFimAFkt-81" target="8c5ajKfIK-UFhFimAFkt-77" edge="1">
          <mxGeometry width="160" relative="1" as="geometry">
            <mxPoint x="-1680" y="722" as="sourcePoint" />
            <mxPoint x="-1520" y="732" as="targetPoint" />
            <Array as="points">
              <mxPoint x="-1519" y="629" />
            </Array>
          </mxGeometry>
        </mxCell>
        <mxCell id="8c5ajKfIK-UFhFimAFkt-131" value="1" style="text;html=1;align=center;verticalAlign=middle;resizable=0;points=[];autosize=1;strokeColor=none;fillColor=none;" parent="WIyWlLk6GJQsqaUBKTNV-1" vertex="1">
          <mxGeometry x="-1545" y="710" width="30" height="30" as="geometry" />
        </mxCell>
        <mxCell id="8c5ajKfIK-UFhFimAFkt-132" value="1..n" style="text;html=1;align=center;verticalAlign=middle;resizable=0;points=[];autosize=1;strokeColor=none;fillColor=none;" parent="WIyWlLk6GJQsqaUBKTNV-1" vertex="1">
          <mxGeometry x="-1565" y="600" width="40" height="30" as="geometry" />
        </mxCell>
        <mxCell id="8c5ajKfIK-UFhFimAFkt-133" value="" style="endArrow=none;endFill=0;endSize=24;html=1;rounded=0;entryX=0.75;entryY=0;entryDx=0;entryDy=0;startArrow=none;startFill=0;exitX=1;exitY=0.25;exitDx=0;exitDy=0;" parent="WIyWlLk6GJQsqaUBKTNV-1" source="8c5ajKfIK-UFhFimAFkt-77" target="8c5ajKfIK-UFhFimAFkt-73" edge="1">
          <mxGeometry width="160" relative="1" as="geometry">
            <mxPoint x="-1440" y="746" as="sourcePoint" />
            <mxPoint x="-1461" y="954" as="targetPoint" />
            <Array as="points">
              <mxPoint x="-1410" y="746" />
            </Array>
          </mxGeometry>
        </mxCell>
        <mxCell id="8c5ajKfIK-UFhFimAFkt-135" value="1" style="text;html=1;align=center;verticalAlign=middle;resizable=0;points=[];autosize=1;strokeColor=none;fillColor=none;" parent="WIyWlLk6GJQsqaUBKTNV-1" vertex="1">
          <mxGeometry x="-1435" y="720" width="30" height="30" as="geometry" />
        </mxCell>
        <mxCell id="8c5ajKfIK-UFhFimAFkt-136" value="1..n" style="text;html=1;align=center;verticalAlign=middle;resizable=0;points=[];autosize=1;strokeColor=none;fillColor=none;" parent="WIyWlLk6GJQsqaUBKTNV-1" vertex="1">
          <mxGeometry x="-1410" y="842" width="40" height="30" as="geometry" />
        </mxCell>
        <mxCell id="8c5ajKfIK-UFhFimAFkt-137" value="" style="endArrow=diamondThin;endFill=1;endSize=24;html=1;rounded=0;exitX=0.5;exitY=0;exitDx=0;exitDy=0;entryX=0;entryY=0;entryDx=0;entryDy=0;startArrow=none;startFill=0;" parent="WIyWlLk6GJQsqaUBKTNV-1" source="8c5ajKfIK-UFhFimAFkt-65" target="8c5ajKfIK-UFhFimAFkt-81" edge="1">
          <mxGeometry width="160" relative="1" as="geometry">
            <mxPoint x="-1850" y="682" as="sourcePoint" />
            <mxPoint x="-1831" y="804" as="targetPoint" />
            <Array as="points">
              <mxPoint x="-2000" y="662" />
              <mxPoint x="-1790" y="612" />
            </Array>
          </mxGeometry>
        </mxCell>
        <mxCell id="8c5ajKfIK-UFhFimAFkt-138" value="" style="endArrow=diamondThin;endFill=1;endSize=24;html=1;rounded=0;entryX=0;entryY=0.5;entryDx=0;entryDy=0;startArrow=none;startFill=0;" parent="WIyWlLk6GJQsqaUBKTNV-1" target="8c5ajKfIK-UFhFimAFkt-81" edge="1">
          <mxGeometry width="160" relative="1" as="geometry">
            <mxPoint x="-1870" y="762" as="sourcePoint" />
            <mxPoint x="-1771" y="904" as="targetPoint" />
            <Array as="points">
              <mxPoint x="-1850" y="732" />
            </Array>
          </mxGeometry>
        </mxCell>
        <mxCell id="8c5ajKfIK-UFhFimAFkt-139" value="" style="endArrow=diamondThin;endFill=1;endSize=24;html=1;rounded=0;entryX=0.553;entryY=-0.035;entryDx=0;entryDy=0;entryPerimeter=0;startArrow=none;startFill=0;exitX=0.46;exitY=0.049;exitDx=0;exitDy=0;exitPerimeter=0;" parent="WIyWlLk6GJQsqaUBKTNV-1" source="8c5ajKfIK-UFhFimAFkt-69" target="8c5ajKfIK-UFhFimAFkt-81" edge="1">
          <mxGeometry width="160" relative="1" as="geometry">
            <mxPoint x="-2250" y="692" as="sourcePoint" />
            <mxPoint x="-1836" y="730" as="targetPoint" />
            <Array as="points">
              <mxPoint x="-2245" y="662" />
              <mxPoint x="-1840" y="572" />
              <mxPoint x="-1630" y="572" />
            </Array>
          </mxGeometry>
        </mxCell>
        <mxCell id="8c5ajKfIK-UFhFimAFkt-140" value="1" style="text;html=1;align=center;verticalAlign=middle;resizable=0;points=[];autosize=1;strokeColor=none;fillColor=none;" parent="WIyWlLk6GJQsqaUBKTNV-1" vertex="1">
          <mxGeometry x="-1675" y="580" width="30" height="30" as="geometry" />
        </mxCell>
        <mxCell id="8c5ajKfIK-UFhFimAFkt-141" value="1" style="text;html=1;align=center;verticalAlign=middle;resizable=0;points=[];autosize=1;strokeColor=none;fillColor=none;" parent="WIyWlLk6GJQsqaUBKTNV-1" vertex="1">
          <mxGeometry x="-2045" y="670" width="30" height="30" as="geometry" />
        </mxCell>
        <mxCell id="8c5ajKfIK-UFhFimAFkt-142" value="1" style="text;html=1;align=center;verticalAlign=middle;resizable=0;points=[];autosize=1;strokeColor=none;fillColor=none;" parent="WIyWlLk6GJQsqaUBKTNV-1" vertex="1">
          <mxGeometry x="-1850" y="730" width="30" height="30" as="geometry" />
        </mxCell>
        <mxCell id="8c5ajKfIK-UFhFimAFkt-143" value="1" style="text;html=1;align=center;verticalAlign=middle;resizable=0;points=[];autosize=1;strokeColor=none;fillColor=none;" parent="WIyWlLk6GJQsqaUBKTNV-1" vertex="1">
          <mxGeometry x="-2275" y="646" width="30" height="30" as="geometry" />
        </mxCell>
        <mxCell id="8c5ajKfIK-UFhFimAFkt-144" value="1" style="text;html=1;align=center;verticalAlign=middle;resizable=0;points=[];autosize=1;strokeColor=none;fillColor=none;" parent="WIyWlLk6GJQsqaUBKTNV-1" vertex="1">
          <mxGeometry x="-1765" y="580" width="30" height="30" as="geometry" />
        </mxCell>
        <mxCell id="8c5ajKfIK-UFhFimAFkt-145" value="1" style="text;html=1;align=center;verticalAlign=middle;resizable=0;points=[];autosize=1;strokeColor=none;fillColor=none;" parent="WIyWlLk6GJQsqaUBKTNV-1" vertex="1">
          <mxGeometry x="-1745" y="640" width="30" height="30" as="geometry" />
        </mxCell>
        <mxCell id="8c5ajKfIK-UFhFimAFkt-146" value="" style="endArrow=none;endFill=0;endSize=24;html=1;rounded=0;entryX=0.188;entryY=-0.062;entryDx=0;entryDy=0;entryPerimeter=0;startArrow=diamondThin;startFill=1;" parent="WIyWlLk6GJQsqaUBKTNV-1" target="8c5ajKfIK-UFhFimAFkt-81" edge="1">
          <mxGeometry width="160" relative="1" as="geometry">
            <mxPoint x="-1980" y="132" as="sourcePoint" />
            <mxPoint x="-1731" y="594" as="targetPoint" />
            <Array as="points">
              <mxPoint x="-1690" y="132" />
            </Array>
          </mxGeometry>
        </mxCell>
        <mxCell id="8c5ajKfIK-UFhFimAFkt-147" value="1" style="text;html=1;align=center;verticalAlign=middle;resizable=0;points=[];autosize=1;strokeColor=none;fillColor=none;" parent="WIyWlLk6GJQsqaUBKTNV-1" vertex="1">
          <mxGeometry x="-1985" y="130" width="30" height="30" as="geometry" />
        </mxCell>
        <mxCell id="8c5ajKfIK-UFhFimAFkt-148" value="1" style="text;html=1;align=center;verticalAlign=middle;resizable=0;points=[];autosize=1;strokeColor=none;fillColor=none;" parent="WIyWlLk6GJQsqaUBKTNV-1" vertex="1">
          <mxGeometry x="-1715" y="580" width="30" height="30" as="geometry" />
        </mxCell>
        <mxCell id="8c5ajKfIK-UFhFimAFkt-149" value="LobbyHandler" style="swimlane;fontStyle=1;align=center;verticalAlign=top;childLayout=stackLayout;horizontal=1;startSize=26;horizontalStack=0;resizeParent=1;resizeParentMax=0;resizeLast=0;collapsible=1;marginBottom=0;whiteSpace=wrap;html=1;" parent="WIyWlLk6GJQsqaUBKTNV-1" vertex="1">
          <mxGeometry x="-2315" y="1002" width="160" height="34" as="geometry" />
        </mxCell>
        <mxCell id="8c5ajKfIK-UFhFimAFkt-151" value="" style="line;strokeWidth=1;fillColor=none;align=left;verticalAlign=middle;spacingTop=-1;spacingLeft=3;spacingRight=3;rotatable=0;labelPosition=right;points=[];portConstraint=eastwest;strokeColor=inherit;" parent="8c5ajKfIK-UFhFimAFkt-149" vertex="1">
          <mxGeometry y="26" width="160" height="8" as="geometry" />
        </mxCell>
        <mxCell id="8c5ajKfIK-UFhFimAFkt-153" value="GameHandler" style="swimlane;fontStyle=1;align=center;verticalAlign=top;childLayout=stackLayout;horizontal=1;startSize=26;horizontalStack=0;resizeParent=1;resizeParentMax=0;resizeLast=0;collapsible=1;marginBottom=0;whiteSpace=wrap;html=1;" parent="WIyWlLk6GJQsqaUBKTNV-1" vertex="1">
          <mxGeometry x="-2160" y="902" width="160" height="34" as="geometry" />
        </mxCell>
        <mxCell id="8c5ajKfIK-UFhFimAFkt-155" value="" style="line;strokeWidth=1;fillColor=none;align=left;verticalAlign=middle;spacingTop=-1;spacingLeft=3;spacingRight=3;rotatable=0;labelPosition=right;points=[];portConstraint=eastwest;strokeColor=inherit;" parent="8c5ajKfIK-UFhFimAFkt-153" vertex="1">
          <mxGeometry y="26" width="160" height="8" as="geometry" />
        </mxCell>
        <mxCell id="8c5ajKfIK-UFhFimAFkt-157" value="LoginHandler" style="swimlane;fontStyle=1;align=center;verticalAlign=top;childLayout=stackLayout;horizontal=1;startSize=26;horizontalStack=0;resizeParent=1;resizeParentMax=0;resizeLast=0;collapsible=1;marginBottom=0;whiteSpace=wrap;html=1;" parent="WIyWlLk6GJQsqaUBKTNV-1" vertex="1">
          <mxGeometry x="-2160" y="1092" width="160" height="34" as="geometry" />
        </mxCell>
        <mxCell id="8c5ajKfIK-UFhFimAFkt-159" value="" style="line;strokeWidth=1;fillColor=none;align=left;verticalAlign=middle;spacingTop=-1;spacingLeft=3;spacingRight=3;rotatable=0;labelPosition=right;points=[];portConstraint=eastwest;strokeColor=inherit;" parent="8c5ajKfIK-UFhFimAFkt-157" vertex="1">
          <mxGeometry y="26" width="160" height="8" as="geometry" />
        </mxCell>
        <mxCell id="8c5ajKfIK-UFhFimAFkt-161" value="PlayerHandler" style="swimlane;fontStyle=1;align=center;verticalAlign=top;childLayout=stackLayout;horizontal=1;startSize=26;horizontalStack=0;resizeParent=1;resizeParentMax=0;resizeLast=0;collapsible=1;marginBottom=0;whiteSpace=wrap;html=1;" parent="WIyWlLk6GJQsqaUBKTNV-1" vertex="1">
          <mxGeometry x="-2305" y="1188" width="160" height="34" as="geometry" />
        </mxCell>
        <mxCell id="8c5ajKfIK-UFhFimAFkt-163" value="" style="line;strokeWidth=1;fillColor=none;align=left;verticalAlign=middle;spacingTop=-1;spacingLeft=3;spacingRight=3;rotatable=0;labelPosition=right;points=[];portConstraint=eastwest;strokeColor=inherit;" parent="8c5ajKfIK-UFhFimAFkt-161" vertex="1">
          <mxGeometry y="26" width="160" height="8" as="geometry" />
        </mxCell>
        <mxCell id="8c5ajKfIK-UFhFimAFkt-169" value="" style="endArrow=diamondThin;endFill=1;endSize=24;html=1;rounded=0;exitX=0.062;exitY=-0.051;exitDx=0;exitDy=0;entryX=0.306;entryY=0;entryDx=0;entryDy=0;entryPerimeter=0;startArrow=none;startFill=0;exitPerimeter=0;" parent="WIyWlLk6GJQsqaUBKTNV-1" source="8c5ajKfIK-UFhFimAFkt-149" target="8c5ajKfIK-UFhFimAFkt-73" edge="1">
          <mxGeometry width="160" relative="1" as="geometry">
            <mxPoint x="-1810" y="952" as="sourcePoint" />
            <mxPoint x="-1791" y="1074" as="targetPoint" />
            <Array as="points">
              <mxPoint x="-2305" y="952" />
              <mxPoint x="-1980" y="952" />
              <mxPoint x="-1610" y="832" />
              <mxPoint x="-1481" y="832" />
            </Array>
          </mxGeometry>
        </mxCell>
        <mxCell id="8c5ajKfIK-UFhFimAFkt-170" value="" style="endArrow=diamondThin;endFill=1;endSize=24;html=1;rounded=0;exitX=0.447;exitY=0.018;exitDx=0;exitDy=0;entryX=0.113;entryY=0;entryDx=0;entryDy=0;entryPerimeter=0;startArrow=none;startFill=0;exitPerimeter=0;" parent="WIyWlLk6GJQsqaUBKTNV-1" source="8c5ajKfIK-UFhFimAFkt-157" target="8c5ajKfIK-UFhFimAFkt-73" edge="1">
          <mxGeometry width="160" relative="1" as="geometry">
            <mxPoint x="-1700" y="1012" as="sourcePoint" />
            <mxPoint x="-1681" y="1134" as="targetPoint" />
            <Array as="points">
              <mxPoint x="-2090" y="1012" />
              <mxPoint x="-1512" y="852" />
            </Array>
          </mxGeometry>
        </mxCell>
        <mxCell id="8c5ajKfIK-UFhFimAFkt-171" value="" style="endArrow=diamondThin;endFill=1;endSize=24;html=1;rounded=0;exitX=0.5;exitY=0;exitDx=0;exitDy=0;entryX=0.546;entryY=0.025;entryDx=0;entryDy=0;entryPerimeter=0;startArrow=none;startFill=0;" parent="WIyWlLk6GJQsqaUBKTNV-1" source="8c5ajKfIK-UFhFimAFkt-153" target="8c5ajKfIK-UFhFimAFkt-73" edge="1">
          <mxGeometry width="160" relative="1" as="geometry">
            <mxPoint x="-1620" y="972" as="sourcePoint" />
            <mxPoint x="-1601" y="1094" as="targetPoint" />
            <Array as="points">
              <mxPoint x="-1970" y="822" />
              <mxPoint x="-1444" y="822" />
            </Array>
          </mxGeometry>
        </mxCell>
        <mxCell id="8c5ajKfIK-UFhFimAFkt-172" value="" style="endArrow=diamondThin;endFill=1;endSize=24;html=1;rounded=0;exitX=1;exitY=0.25;exitDx=0;exitDy=0;entryX=0;entryY=0.5;entryDx=0;entryDy=0;startArrow=none;startFill=0;" parent="WIyWlLk6GJQsqaUBKTNV-1" source="8c5ajKfIK-UFhFimAFkt-161" target="8c5ajKfIK-UFhFimAFkt-73" edge="1">
          <mxGeometry width="160" relative="1" as="geometry">
            <mxPoint x="-1480" y="1072" as="sourcePoint" />
            <mxPoint x="-1461" y="1194" as="targetPoint" />
            <Array as="points">
              <mxPoint x="-2090" y="1195" />
              <mxPoint x="-1740" y="982" />
            </Array>
          </mxGeometry>
        </mxCell>
        <mxCell id="8c5ajKfIK-UFhFimAFkt-173" value="1" style="text;html=1;align=center;verticalAlign=middle;resizable=0;points=[];autosize=1;strokeColor=none;fillColor=none;" parent="WIyWlLk6GJQsqaUBKTNV-1" vertex="1">
          <mxGeometry x="-2105" y="874" width="30" height="30" as="geometry" />
        </mxCell>
        <mxCell id="8c5ajKfIK-UFhFimAFkt-174" value="1" style="text;html=1;align=center;verticalAlign=middle;resizable=0;points=[];autosize=1;strokeColor=none;fillColor=none;" parent="WIyWlLk6GJQsqaUBKTNV-1" vertex="1">
          <mxGeometry x="-2305" y="972" width="30" height="30" as="geometry" />
        </mxCell>
        <mxCell id="8c5ajKfIK-UFhFimAFkt-175" value="1" style="text;html=1;align=center;verticalAlign=middle;resizable=0;points=[];autosize=1;strokeColor=none;fillColor=none;" parent="WIyWlLk6GJQsqaUBKTNV-1" vertex="1">
          <mxGeometry x="-2090" y="1062" width="30" height="30" as="geometry" />
        </mxCell>
        <mxCell id="8c5ajKfIK-UFhFimAFkt-176" value="1" style="text;html=1;align=center;verticalAlign=middle;resizable=0;points=[];autosize=1;strokeColor=none;fillColor=none;" parent="WIyWlLk6GJQsqaUBKTNV-1" vertex="1">
          <mxGeometry x="-2145" y="1170" width="30" height="30" as="geometry" />
        </mxCell>
        <mxCell id="8c5ajKfIK-UFhFimAFkt-177" value="1" style="text;html=1;align=center;verticalAlign=middle;resizable=0;points=[];autosize=1;strokeColor=none;fillColor=none;" parent="WIyWlLk6GJQsqaUBKTNV-1" vertex="1">
          <mxGeometry x="-1565" y="900" width="30" height="30" as="geometry" />
        </mxCell>
        <mxCell id="8c5ajKfIK-UFhFimAFkt-178" value="1" style="text;html=1;align=center;verticalAlign=middle;resizable=0;points=[];autosize=1;strokeColor=none;fillColor=none;" parent="WIyWlLk6GJQsqaUBKTNV-1" vertex="1">
          <mxGeometry x="-1450" y="822" width="30" height="30" as="geometry" />
        </mxCell>
        <mxCell id="8c5ajKfIK-UFhFimAFkt-179" value="1" style="text;html=1;align=center;verticalAlign=middle;resizable=0;points=[];autosize=1;strokeColor=none;fillColor=none;" parent="WIyWlLk6GJQsqaUBKTNV-1" vertex="1">
          <mxGeometry x="-1485" y="840" width="30" height="30" as="geometry" />
        </mxCell>
        <mxCell id="8c5ajKfIK-UFhFimAFkt-180" value="1" style="text;html=1;align=center;verticalAlign=middle;resizable=0;points=[];autosize=1;strokeColor=none;fillColor=none;" parent="WIyWlLk6GJQsqaUBKTNV-1" vertex="1">
          <mxGeometry x="-1560" y="836" width="30" height="30" as="geometry" />
        </mxCell>
        <mxCell id="8c5ajKfIK-UFhFimAFkt-181" value="PlayerView" style="swimlane;fontStyle=1;align=center;verticalAlign=top;childLayout=stackLayout;horizontal=1;startSize=26;horizontalStack=0;resizeParent=1;resizeParentMax=0;resizeLast=0;collapsible=1;marginBottom=0;whiteSpace=wrap;html=1;" parent="WIyWlLk6GJQsqaUBKTNV-1" vertex="1">
          <mxGeometry x="-1670" y="1212" width="160" height="34" as="geometry" />
        </mxCell>
        <mxCell id="8c5ajKfIK-UFhFimAFkt-183" value="" style="line;strokeWidth=1;fillColor=none;align=left;verticalAlign=middle;spacingTop=-1;spacingLeft=3;spacingRight=3;rotatable=0;labelPosition=right;points=[];portConstraint=eastwest;strokeColor=inherit;" parent="8c5ajKfIK-UFhFimAFkt-181" vertex="1">
          <mxGeometry y="26" width="160" height="8" as="geometry" />
        </mxCell>
        <mxCell id="8c5ajKfIK-UFhFimAFkt-185" value="LoginView" style="swimlane;fontStyle=1;align=center;verticalAlign=top;childLayout=stackLayout;horizontal=1;startSize=26;horizontalStack=0;resizeParent=1;resizeParentMax=0;resizeLast=0;collapsible=1;marginBottom=0;whiteSpace=wrap;html=1;" parent="WIyWlLk6GJQsqaUBKTNV-1" vertex="1">
          <mxGeometry x="-1445" y="1176" width="160" height="34" as="geometry" />
        </mxCell>
        <mxCell id="8c5ajKfIK-UFhFimAFkt-187" value="" style="line;strokeWidth=1;fillColor=none;align=left;verticalAlign=middle;spacingTop=-1;spacingLeft=3;spacingRight=3;rotatable=0;labelPosition=right;points=[];portConstraint=eastwest;strokeColor=inherit;" parent="8c5ajKfIK-UFhFimAFkt-185" vertex="1">
          <mxGeometry y="26" width="160" height="8" as="geometry" />
        </mxCell>
        <mxCell id="8c5ajKfIK-UFhFimAFkt-189" value="GameView" style="swimlane;fontStyle=1;align=center;verticalAlign=top;childLayout=stackLayout;horizontal=1;startSize=26;horizontalStack=0;resizeParent=1;resizeParentMax=0;resizeLast=0;collapsible=1;marginBottom=0;whiteSpace=wrap;html=1;" parent="WIyWlLk6GJQsqaUBKTNV-1" vertex="1">
          <mxGeometry x="-1450" y="1042" width="160" height="34" as="geometry" />
        </mxCell>
        <mxCell id="8c5ajKfIK-UFhFimAFkt-191" value="" style="line;strokeWidth=1;fillColor=none;align=left;verticalAlign=middle;spacingTop=-1;spacingLeft=3;spacingRight=3;rotatable=0;labelPosition=right;points=[];portConstraint=eastwest;strokeColor=inherit;" parent="8c5ajKfIK-UFhFimAFkt-189" vertex="1">
          <mxGeometry y="26" width="160" height="8" as="geometry" />
        </mxCell>
        <mxCell id="8c5ajKfIK-UFhFimAFkt-194" value="LobbyView" style="swimlane;fontStyle=1;align=center;verticalAlign=top;childLayout=stackLayout;horizontal=1;startSize=26;horizontalStack=0;resizeParent=1;resizeParentMax=0;resizeLast=0;collapsible=1;marginBottom=0;whiteSpace=wrap;html=1;" parent="WIyWlLk6GJQsqaUBKTNV-1" vertex="1">
          <mxGeometry x="-1690" y="1080" width="160" height="34" as="geometry" />
        </mxCell>
        <mxCell id="8c5ajKfIK-UFhFimAFkt-196" value="" style="line;strokeWidth=1;fillColor=none;align=left;verticalAlign=middle;spacingTop=-1;spacingLeft=3;spacingRight=3;rotatable=0;labelPosition=right;points=[];portConstraint=eastwest;strokeColor=inherit;" parent="8c5ajKfIK-UFhFimAFkt-194" vertex="1">
          <mxGeometry y="26" width="160" height="8" as="geometry" />
        </mxCell>
        <mxCell id="8c5ajKfIK-UFhFimAFkt-198" value="" style="endArrow=none;endFill=0;endSize=24;html=1;rounded=0;entryX=0;entryY=0.5;entryDx=0;entryDy=0;startArrow=none;startFill=0;exitX=1.001;exitY=0.627;exitDx=0;exitDy=0;exitPerimeter=0;" parent="WIyWlLk6GJQsqaUBKTNV-1" source="8c5ajKfIK-UFhFimAFkt-161" target="8c5ajKfIK-UFhFimAFkt-181" edge="1">
          <mxGeometry width="160" relative="1" as="geometry">
            <mxPoint x="-2225" y="1205" as="sourcePoint" />
            <mxPoint x="-1981" y="1374" as="targetPoint" />
            <Array as="points">
              <mxPoint x="-1980" y="1209" />
            </Array>
          </mxGeometry>
        </mxCell>
        <mxCell id="8c5ajKfIK-UFhFimAFkt-199" value="" style="endArrow=none;endFill=0;endSize=24;html=1;rounded=0;exitX=1;exitY=0.5;exitDx=0;exitDy=0;entryX=0;entryY=0.5;entryDx=0;entryDy=0;startArrow=none;startFill=0;" parent="WIyWlLk6GJQsqaUBKTNV-1" source="8c5ajKfIK-UFhFimAFkt-157" target="8c5ajKfIK-UFhFimAFkt-185" edge="1">
          <mxGeometry width="160" relative="1" as="geometry">
            <mxPoint x="-1920" y="1312" as="sourcePoint" />
            <mxPoint x="-1901" y="1434" as="targetPoint" />
            <Array as="points">
              <mxPoint x="-1830" y="1143" />
            </Array>
          </mxGeometry>
        </mxCell>
        <mxCell id="8c5ajKfIK-UFhFimAFkt-200" value="" style="endArrow=none;endFill=0;endSize=24;html=1;rounded=0;exitX=1;exitY=0.5;exitDx=0;exitDy=0;entryX=0;entryY=0.5;entryDx=0;entryDy=0;startArrow=none;startFill=0;" parent="WIyWlLk6GJQsqaUBKTNV-1" source="8c5ajKfIK-UFhFimAFkt-149" target="8c5ajKfIK-UFhFimAFkt-194" edge="1">
          <mxGeometry width="160" relative="1" as="geometry">
            <mxPoint x="-1880" y="1242" as="sourcePoint" />
            <mxPoint x="-1861" y="1364" as="targetPoint" />
            <Array as="points">
              <mxPoint x="-1720" y="1077" />
            </Array>
          </mxGeometry>
        </mxCell>
        <mxCell id="8c5ajKfIK-UFhFimAFkt-201" value="" style="endArrow=none;endFill=0;endSize=24;html=1;rounded=0;exitX=1;exitY=0.25;exitDx=0;exitDy=0;entryX=0;entryY=0.5;entryDx=0;entryDy=0;startArrow=none;startFill=0;" parent="WIyWlLk6GJQsqaUBKTNV-1" source="8c5ajKfIK-UFhFimAFkt-153" target="8c5ajKfIK-UFhFimAFkt-189" edge="1">
          <mxGeometry width="160" relative="1" as="geometry">
            <mxPoint x="-1910" y="1202" as="sourcePoint" />
            <mxPoint x="-1891" y="1324" as="targetPoint" />
            <Array as="points">
              <mxPoint x="-1560" y="1009" />
            </Array>
          </mxGeometry>
        </mxCell>
        <mxCell id="8c5ajKfIK-UFhFimAFkt-202" value="1" style="text;html=1;align=center;verticalAlign=middle;resizable=0;points=[];autosize=1;strokeColor=none;fillColor=none;" parent="WIyWlLk6GJQsqaUBKTNV-1" vertex="1">
          <mxGeometry x="-1995" y="880" width="30" height="30" as="geometry" />
        </mxCell>
        <mxCell id="8c5ajKfIK-UFhFimAFkt-203" value="1" style="text;html=1;align=center;verticalAlign=middle;resizable=0;points=[];autosize=1;strokeColor=none;fillColor=none;" parent="WIyWlLk6GJQsqaUBKTNV-1" vertex="1">
          <mxGeometry x="-2155" y="990" width="30" height="30" as="geometry" />
        </mxCell>
        <mxCell id="8c5ajKfIK-UFhFimAFkt-204" value="1" style="text;html=1;align=center;verticalAlign=middle;resizable=0;points=[];autosize=1;strokeColor=none;fillColor=none;" parent="WIyWlLk6GJQsqaUBKTNV-1" vertex="1">
          <mxGeometry x="-2005" y="1080" width="30" height="30" as="geometry" />
        </mxCell>
        <mxCell id="8c5ajKfIK-UFhFimAFkt-205" value="1" style="text;html=1;align=center;verticalAlign=middle;resizable=0;points=[];autosize=1;strokeColor=none;fillColor=none;" parent="WIyWlLk6GJQsqaUBKTNV-1" vertex="1">
          <mxGeometry x="-2150" y="1212" width="30" height="30" as="geometry" />
        </mxCell>
        <mxCell id="8c5ajKfIK-UFhFimAFkt-206" value="1" style="text;html=1;align=center;verticalAlign=middle;resizable=0;points=[];autosize=1;strokeColor=none;fillColor=none;" parent="WIyWlLk6GJQsqaUBKTNV-1" vertex="1">
          <mxGeometry x="-1705" y="1230" width="30" height="30" as="geometry" />
        </mxCell>
        <mxCell id="8c5ajKfIK-UFhFimAFkt-207" value="1" style="text;html=1;align=center;verticalAlign=middle;resizable=0;points=[];autosize=1;strokeColor=none;fillColor=none;" parent="WIyWlLk6GJQsqaUBKTNV-1" vertex="1">
          <mxGeometry x="-1480" y="1192" width="30" height="30" as="geometry" />
        </mxCell>
        <mxCell id="8c5ajKfIK-UFhFimAFkt-208" value="1" style="text;html=1;align=center;verticalAlign=middle;resizable=0;points=[];autosize=1;strokeColor=none;fillColor=none;" parent="WIyWlLk6GJQsqaUBKTNV-1" vertex="1">
          <mxGeometry x="-1680" y="1046" width="30" height="30" as="geometry" />
        </mxCell>
        <mxCell id="8c5ajKfIK-UFhFimAFkt-209" value="1" style="text;html=1;align=center;verticalAlign=middle;resizable=0;points=[];autosize=1;strokeColor=none;fillColor=none;" parent="WIyWlLk6GJQsqaUBKTNV-1" vertex="1">
          <mxGeometry x="-1495" y="1012" width="30" height="30" as="geometry" />
        </mxCell>
        <mxCell id="8c5ajKfIK-UFhFimAFkt-216" value="MODEL" style="text;html=1;align=center;verticalAlign=middle;resizable=0;points=[];autosize=1;strokeColor=none;fillColor=none;" parent="WIyWlLk6GJQsqaUBKTNV-1" vertex="1">
          <mxGeometry x="-1855" y="22" width="70" height="30" as="geometry" />
        </mxCell>
        <mxCell id="8c5ajKfIK-UFhFimAFkt-217" value="CONTROLLER" style="text;html=1;align=center;verticalAlign=middle;resizable=0;points=[];autosize=1;strokeColor=none;fillColor=none;" parent="WIyWlLk6GJQsqaUBKTNV-1" vertex="1">
          <mxGeometry x="-1325" y="22" width="110" height="30" as="geometry" />
        </mxCell>
        <mxCell id="8c5ajKfIK-UFhFimAFkt-218" value="VIRTUALVIEW" style="text;html=1;align=center;verticalAlign=middle;resizable=0;points=[];autosize=1;strokeColor=none;fillColor=none;" parent="WIyWlLk6GJQsqaUBKTNV-1" vertex="1">
          <mxGeometry x="-2365" y="614" width="100" height="30" as="geometry" />
        </mxCell>
        <mxCell id="8c5ajKfIK-UFhFimAFkt-219" value="NETWORK HANDLER" style="text;html=1;align=center;verticalAlign=middle;resizable=0;points=[];autosize=1;strokeColor=none;fillColor=none;" parent="WIyWlLk6GJQsqaUBKTNV-1" vertex="1">
          <mxGeometry x="-2320" y="870" width="150" height="30" as="geometry" />
        </mxCell>
        <mxCell id="8c5ajKfIK-UFhFimAFkt-220" value="NETWORKING" style="text;html=1;align=center;verticalAlign=middle;resizable=0;points=[];autosize=1;strokeColor=none;fillColor=none;" parent="WIyWlLk6GJQsqaUBKTNV-1" vertex="1">
          <mxGeometry x="-1390" y="590" width="110" height="30" as="geometry" />
        </mxCell>
        <mxCell id="8c5ajKfIK-UFhFimAFkt-221" value="VIEW" style="text;html=1;align=center;verticalAlign=middle;resizable=0;points=[];autosize=1;strokeColor=none;fillColor=none;" parent="WIyWlLk6GJQsqaUBKTNV-1" vertex="1">
          <mxGeometry x="-1730" y="1004" width="50" height="30" as="geometry" />
        </mxCell>
      </root>
    </mxGraphModel>
  </diagram>
</mxfile>
